<svg width="720" height="1280" viewBox="0 0 720 1280" fill="none" xmlns="http://www.w3.org/2000/svg">
  <rect width="720" height="1280" fill="#0D0F0C"/>
  <path d="M0 234H720M0 1034H720" stroke="#262A23" stroke-width="2"/>
  <path d="M112 0V1280M608 0V1280" stroke="#1D201B" stroke-width="2"/>
  <rect x="52" y="78" width="190" height="44" rx="10" fill="#171A16" stroke="#30352D"/>
  <circle cx="78" cy="100" r="6" fill="#C8FF43"/>
  <text x="98" y="106" fill="#DCE1D7" font-family="Arial, sans-serif" font-size="18" font-weight="700" letter-spacing="1.4">ROUND 01</text>
  <ellipse cx="365" cy="474" rx="106" ry="242" fill="#161915"/>
  <circle cx="374" cy="279" r="58" fill="#242820"/>
  <path d="M335 352C271 405 246 505 253 646M414 348C469 428 496 526 475 650" stroke="#2E332A" stroke-width="42" stroke-linecap="round"/>
  <path d="M284 455L179 364M445 421L542 333" stroke="#32372E" stroke-width="34" stroke-linecap="round"/>
  <rect x="50" y="770" width="620" height="344" rx="26" fill="#121510" stroke="#30352D" stroke-width="2"/>
  <text x="84" y="827" fill="#C8FF43" font-family="Arial, sans-serif" font-size="18" font-weight="800" letter-spacing="2.5">GUARD DROP</text>
  <text x="84" y="885" fill="#F5F7F1" font-family="Arial, sans-serif" font-size="34" font-weight="700">Rear hand dropped on 6/10 jabs</text>
  <rect x="84" y="927" width="552" height="92" rx="12" fill="#1A1E16"/>
  <rect x="84" y="927" width="5" height="92" rx="2.5" fill="#C8FF43"/>
  <text x="112" y="961" fill="#7D8576" font-family="Arial, sans-serif" font-size="13" font-weight="800" letter-spacing="1.8">FIX</text>
  <text x="112" y="994" fill="#F5F7F1" font-family="Arial, sans-serif" font-size="24" font-weight="700">Keep your rear hand on your cheek.</text>
  <text x="360" y="1192" text-anchor="middle" fill="#6E7569" font-family="Arial, sans-serif" font-size="17" letter-spacing="1.4">DROP YOUR 9:16 CONCEPT VIDEO AT</text>
  <text x="360" y="1223" text-anchor="middle" fill="#C8FF43" font-family="Arial, sans-serif" font-size="18" font-weight="700">/assets/concept-demo.mp4</text>
</svg>
